STARTFONT 2.1
FONT retro8x8
SIZE 8 75 75
FONTBOUNDINGBOX 8 8 0 0
CHARS 256
STARTCHAR C0
ENCODING 0
SWIDTH 500 0
DWIDTH 8 0
BBX 8 8 0 0
BITMAP
00
00
00
00
00
00
00
00
ENDCHAR
STARTCHAR C1
ENCODING 1
SWIDTH 500 0
DWIDTH 8 0
BBX 8 8 0 0
BITMAP
00
00
00
00
00
00
00
00
ENDCHAR
STARTCHAR C2
ENCODING 2
SWIDTH 500 0
DWIDTH 8 0
BBX 8 8 0 0
BITMAP
00
00
00
00
00
00
00
00
ENDCHAR
STARTCHAR C3
ENCODING 3
SWIDTH 500 0
DWIDTH 8 0
BBX 8 8 0 0
BITMAP
00
00
00
00
00
00
00
00
ENDCHAR
STARTCHAR C4
ENCODING 4
SWIDTH 500 0
DWIDTH 8 0
BBX 8 8 0 0
BITMAP
00
00
00
00
00
00
00
00
ENDCHAR
STARTCHAR C5
ENCODING 5
SWIDTH 500 0
DWIDTH 8 0
BBX 8 8 0 0
BITMAP
00
00
00
00
00
00
00
00
ENDCHAR
STARTCHAR C6
ENCODING 6
SWIDTH 500 0
DWIDTH 8 0
BBX 8 8 0 0
BITMAP
00
00
00
00
00
00
00
00
ENDCHAR
STARTCHAR C7
ENCODING 7
SWIDTH 500 0
DWIDTH 8 0
BBX 8 8 0 0
BITMAP
00
00
00
00
00
00
00
00
ENDCHAR
STARTCHAR C8
ENCODING 8
SWIDTH 500 0
DWIDTH 8 0
BBX 8 8 0 0
BITMAP
00
00
00
00
00
00
00
00
ENDCHAR
STARTCHAR C9
ENCODING 9
SWIDTH 500 0
DWIDTH 8 0
BBX 8 8 0 0
BITMAP
00
00
00
00
00
00
00
00
ENDCHAR
STARTCHAR C10
ENCODING 10
SWIDTH 500 0
DWIDTH 8 0
BBX 8 8 0 0
BITMAP
00
00
00
00
00
00
00
00
ENDCHAR
STARTCHAR C11
ENCODING 11
SWIDTH 500 0
DWIDTH 8 0
BBX 8 8 0 0
BITMAP
00
00
00
00
00
00
00
00
ENDCHAR
STARTCHAR C12
ENCODING 12
SWIDTH 500 0
DWIDTH 8 0
BBX 8 8 0 0
BITMAP
00
00
00
00
00
00
00
00
ENDCHAR
STARTCHAR C13
ENCODING 13
SWIDTH 500 0
DWIDTH 8 0
BBX 8 8 0 0
BITMAP
00
00
00
00
00
00
00
00
ENDCHAR
STARTCHAR C14
ENCODING 14
SWIDTH 500 0
DWIDTH 8 0
BBX 8 8 0 0
BITMAP
00
00
00
00
00
00
00
00
ENDCHAR
STARTCHAR C15
ENCODING 15
SWIDTH 500 0
DWIDTH 8 0
BBX 8 8 0 0
BITMAP
00
00
00
00
00
00
00
00
ENDCHAR
STARTCHAR C16
ENCODING 16
SWIDTH 500 0
DWIDTH 8 0
BBX 8 8 0 0
BITMAP
00
00
00
00
00
00
00
00
ENDCHAR
STARTCHAR C17
ENCODING 17
SWIDTH 500 0
DWIDTH 8 0
BBX 8 8 0 0
BITMAP
00
00
00
00
00
00
00
00
ENDCHAR
STARTCHAR C18
ENCODING 18
SWIDTH 500 0
DWIDTH 8 0
BBX 8 8 0 0
BITMAP
00
00
00
00
00
00
00
00
ENDCHAR
STARTCHAR C19
ENCODING 19
SWIDTH 500 0
DWIDTH 8 0
BBX 8 8 0 0
BITMAP
00
00
00
00
00
00
00
00
ENDCHAR
STARTCHAR C20
ENCODING 20
SWIDTH 500 0
DWIDTH 8 0
BBX 8 8 0 0
BITMAP
00
00
00
00
00
00
00
00
ENDCHAR
STARTCHAR C21
ENCODING 21
SWIDTH 500 0
DWIDTH 8 0
BBX 8 8 0 0
BITMAP
00
00
00
00
00
00
00
00
ENDCHAR
STARTCHAR C22
ENCODING 22
SWIDTH 500 0
DWIDTH 8 0
BBX 8 8 0 0
BITMAP
00
00
00
00
00
00
00
00
ENDCHAR
STARTCHAR C23
ENCODING 23
SWIDTH 500 0
DWIDTH 8 0
BBX 8 8 0 0
BITMAP
00
00
00
00
00
00
00
00
ENDCHAR
STARTCHAR C24
ENCODING 24
SWIDTH 500 0
DWIDTH 8 0
BBX 8 8 0 0
BITMAP
00
00
00
00
00
00
00
00
ENDCHAR
STARTCHAR C25
ENCODING 25
SWIDTH 500 0
DWIDTH 8 0
BBX 8 8 0 0
BITMAP
00
00
00
00
00
00
00
00
ENDCHAR
STARTCHAR C26
ENCODING 26
SWIDTH 500 0
DWIDTH 8 0
BBX 8 8 0 0
BITMAP
00
00
00
00
00
00
00
00
ENDCHAR
STARTCHAR C27
ENCODING 27
SWIDTH 500 0
DWIDTH 8 0
BBX 8 8 0 0
BITMAP
00
00
00
00
00
00
00
00
ENDCHAR
STARTCHAR C28
ENCODING 28
SWIDTH 500 0
DWIDTH 8 0
BBX 8 8 0 0
BITMAP
00
00
00
00
00
00
00
00
ENDCHAR
STARTCHAR C29
ENCODING 29
SWIDTH 500 0
DWIDTH 8 0
BBX 8 8 0 0
BITMAP
00
00
00
00
00
00
00
00
ENDCHAR
STARTCHAR C30
ENCODING 30
SWIDTH 500 0
DWIDTH 8 0
BBX 8 8 0 0
BITMAP
00
00
00
00
00
00
00
00
ENDCHAR
STARTCHAR C31
ENCODING 31
SWIDTH 500 0
DWIDTH 8 0
BBX 8 8 0 0
BITMAP
00
00
00
00
00
00
00
00
ENDCHAR
STARTCHAR C32
ENCODING 32
SWIDTH 500 0
DWIDTH 8 0
BBX 8 8 0 0
BITMAP
00
00
00
00
00
00
00
00
ENDCHAR
STARTCHAR C33
ENCODING 33
SWIDTH 500 0
DWIDTH 8 0
BBX 8 8 0 0
BITMAP
10
10
10
10
10
10
00
10
ENDCHAR
STARTCHAR C34
ENCODING 34
SWIDTH 500 0
DWIDTH 8 0
BBX 8 8 0 0
BITMAP
28
28
00
00
00
00
00
00
ENDCHAR
STARTCHAR C35
ENCODING 35
SWIDTH 500 0
DWIDTH 8 0
BBX 8 8 0 0
BITMAP
00
00
24
7E
24
7E
24
00
ENDCHAR
STARTCHAR C36
ENCODING 36
SWIDTH 500 0
DWIDTH 8 0
BBX 8 8 0 0
BITMAP
00
18
3E
58
3C
1A
7C
18
ENDCHAR
STARTCHAR C37
ENCODING 37
SWIDTH 500 0
DWIDTH 8 0
BBX 8 8 0 0
BITMAP
00
00
00
24
08
10
24
00
ENDCHAR
STARTCHAR C38
ENCODING 38
SWIDTH 500 0
DWIDTH 8 0
BBX 8 8 0 0
BITMAP
00
10
28
10
2A
44
3A
00
ENDCHAR
STARTCHAR C39
ENCODING 39
SWIDTH 500 0
DWIDTH 8 0
BBX 8 8 0 0
BITMAP
00
00
00
00
00
00
00
00
ENDCHAR
STARTCHAR C40
ENCODING 40
SWIDTH 500 0
DWIDTH 8 0
BBX 8 8 0 0
BITMAP
00
00
10
20
20
20
10
00
ENDCHAR
STARTCHAR C41
ENCODING 41
SWIDTH 500 0
DWIDTH 8 0
BBX 8 8 0 0
BITMAP
00
00
10
08
08
08
10
00
ENDCHAR
STARTCHAR C42
ENCODING 42
SWIDTH 500 0
DWIDTH 8 0
BBX 8 8 0 0
BITMAP
00
00
24
18
3C
18
24
00
ENDCHAR
STARTCHAR C43
ENCODING 43
SWIDTH 500 0
DWIDTH 8 0
BBX 8 8 0 0
BITMAP
00
00
08
08
3E
08
08
00
ENDCHAR
STARTCHAR C44
ENCODING 44
SWIDTH 500 0
DWIDTH 8 0
BBX 8 8 0 0
BITMAP
00
00
00
00
00
00
10
20
ENDCHAR
STARTCHAR C45
ENCODING 45
SWIDTH 500 0
DWIDTH 8 0
BBX 8 8 0 0
BITMAP
00
00
00
00
3C
00
00
00
ENDCHAR
STARTCHAR C46
ENCODING 46
SWIDTH 500 0
DWIDTH 8 0
BBX 8 8 0 0
BITMAP
00
00
00
00
00
00
10
00
ENDCHAR
STARTCHAR C47
ENCODING 47
SWIDTH 500 0
DWIDTH 8 0
BBX 8 8 0 0
BITMAP
00
00
00
04
08
10
20
00
ENDCHAR
STARTCHAR C48
ENCODING 48
SWIDTH 500 0
DWIDTH 8 0
BBX 8 8 0 0
BITMAP
78
CC
CC
CC
CC
CC
78
00
ENDCHAR
STARTCHAR C49
ENCODING 49
SWIDTH 500 0
DWIDTH 8 0
BBX 8 8 0 0
BITMAP
30
F0
30
30
30
30
30
00
ENDCHAR
STARTCHAR C50
ENCODING 50
SWIDTH 500 0
DWIDTH 8 0
BBX 8 8 0 0
BITMAP
78
CC
0C
38
60
C0
FC
00
ENDCHAR
STARTCHAR C51
ENCODING 51
SWIDTH 500 0
DWIDTH 8 0
BBX 8 8 0 0
BITMAP
78
CC
0C
38
0C
CC
78
00
ENDCHAR
STARTCHAR C52
ENCODING 52
SWIDTH 500 0
DWIDTH 8 0
BBX 8 8 0 0
BITMAP
0C
1C
2C
4C
FE
0C
0C
00
ENDCHAR
STARTCHAR C53
ENCODING 53
SWIDTH 500 0
DWIDTH 8 0
BBX 8 8 0 0
BITMAP
FC
C0
F8
0C
0C
CC
78
00
ENDCHAR
STARTCHAR C54
ENCODING 54
SWIDTH 500 0
DWIDTH 8 0
BBX 8 8 0 0
BITMAP
38
60
C0
F8
CC
CC
78
00
ENDCHAR
STARTCHAR C55
ENCODING 55
SWIDTH 500 0
DWIDTH 8 0
BBX 8 8 0 0
BITMAP
FC
CC
0C
18
30
60
60
00
ENDCHAR
STARTCHAR C56
ENCODING 56
SWIDTH 500 0
DWIDTH 8 0
BBX 8 8 0 0
BITMAP
78
CC
CC
78
CC
CC
78
00
ENDCHAR
STARTCHAR C57
ENCODING 57
SWIDTH 500 0
DWIDTH 8 0
BBX 8 8 0 0
BITMAP
78
CC
CC
7C
0C
18
70
00
ENDCHAR
STARTCHAR C58
ENCODING 58
SWIDTH 500 0
DWIDTH 8 0
BBX 8 8 0 0
BITMAP
00
00
00
10
00
00
10
00
ENDCHAR
STARTCHAR C59
ENCODING 59
SWIDTH 500 0
DWIDTH 8 0
BBX 8 8 0 0
BITMAP
00
00
00
00
00
00
00
00
ENDCHAR
STARTCHAR C60
ENCODING 60
SWIDTH 500 0
DWIDTH 8 0
BBX 8 8 0 0
BITMAP
00
00
08
10
20
10
08
00
ENDCHAR
STARTCHAR C61
ENCODING 61
SWIDTH 500 0
DWIDTH 8 0
BBX 8 8 0 0
BITMAP
00
00
00
3C
00
3C
00
00
ENDCHAR
STARTCHAR C62
ENCODING 62
SWIDTH 500 0
DWIDTH 8 0
BBX 8 8 0 0
BITMAP
00
00
20
10
08
10
20
00
ENDCHAR
STARTCHAR C63
ENCODING 63
SWIDTH 500 0
DWIDTH 8 0
BBX 8 8 0 0
BITMAP
00
00
18
24
08
08
00
08
ENDCHAR
STARTCHAR C64
ENCODING 64
SWIDTH 500 0
DWIDTH 8 0
BBX 8 8 0 0
BITMAP
00
00
00
00
00
00
00
00
ENDCHAR
STARTCHAR C65
ENCODING 65
SWIDTH 500 0
DWIDTH 8 0
BBX 8 8 0 0
BITMAP
3C
62
62
7A
62
62
62
00
ENDCHAR
STARTCHAR C66
ENCODING 66
SWIDTH 500 0
DWIDTH 8 0
BBX 8 8 0 0
BITMAP
7C
62
62
6C
62
62
7C
00
ENDCHAR
STARTCHAR C67
ENCODING 67
SWIDTH 500 0
DWIDTH 8 0
BBX 8 8 0 0
BITMAP
3E
60
60
60
60
60
3E
00
ENDCHAR
STARTCHAR C68
ENCODING 68
SWIDTH 500 0
DWIDTH 8 0
BBX 8 8 0 0
BITMAP
7C
62
62
62
62
62
7C
00
ENDCHAR
STARTCHAR C69
ENCODING 69
SWIDTH 500 0
DWIDTH 8 0
BBX 8 8 0 0
BITMAP
7E
60
60
78
60
60
7E
00
ENDCHAR
STARTCHAR C70
ENCODING 70
SWIDTH 500 0
DWIDTH 8 0
BBX 8 8 0 0
BITMAP
7E
60
60
78
60
60
60
00
ENDCHAR
STARTCHAR C71
ENCODING 71
SWIDTH 500 0
DWIDTH 8 0
BBX 8 8 0 0
BITMAP
3E
60
60
66
62
62
3C
00
ENDCHAR
STARTCHAR C72
ENCODING 72
SWIDTH 500 0
DWIDTH 8 0
BBX 8 8 0 0
BITMAP
62
62
62
6E
62
62
62
00
ENDCHAR
STARTCHAR C73
ENCODING 73
SWIDTH 500 0
DWIDTH 8 0
BBX 8 8 0 0
BITMAP
18
18
18
18
18
18
18
00
ENDCHAR
STARTCHAR C74
ENCODING 74
SWIDTH 500 0
DWIDTH 8 0
BBX 8 8 0 0
BITMAP
0C
0C
0C
0C
0C
2C
18
00
ENDCHAR
STARTCHAR C75
ENCODING 75
SWIDTH 500 0
DWIDTH 8 0
BBX 8 8 0 0
BITMAP
62
62
62
6C
62
62
62
00
ENDCHAR
STARTCHAR C76
ENCODING 76
SWIDTH 500 0
DWIDTH 8 0
BBX 8 8 0 0
BITMAP
60
60
60
60
60
60
7C
00
ENDCHAR
STARTCHAR C77
ENCODING 77
SWIDTH 500 0
DWIDTH 8 0
BBX 8 8 0 0
BITMAP
76
C9
C9
C1
C1
C1
C1
00
ENDCHAR
STARTCHAR C78
ENCODING 78
SWIDTH 500 0
DWIDTH 8 0
BBX 8 8 0 0
BITMAP
62
72
6A
66
62
62
62
00
ENDCHAR
STARTCHAR C79
ENCODING 79
SWIDTH 500 0
DWIDTH 8 0
BBX 8 8 0 0
BITMAP
3C
62
62
62
62
62
3C
00
ENDCHAR
STARTCHAR C80
ENCODING 80
SWIDTH 500 0
DWIDTH 8 0
BBX 8 8 0 0
BITMAP
7C
62
62
6C
60
60
60
00
ENDCHAR
STARTCHAR C81
ENCODING 81
SWIDTH 500 0
DWIDTH 8 0
BBX 8 8 0 0
BITMAP
3C
62
62
62
62
62
3E
02
ENDCHAR
STARTCHAR C82
ENCODING 82
SWIDTH 500 0
DWIDTH 8 0
BBX 8 8 0 0
BITMAP
7C
62
62
6C
64
62
62
00
ENDCHAR
STARTCHAR C83
ENCODING 83
SWIDTH 500 0
DWIDTH 8 0
BBX 8 8 0 0
BITMAP
3E
60
60
3C
06
06
7C
00
ENDCHAR
STARTCHAR C84
ENCODING 84
SWIDTH 500 0
DWIDTH 8 0
BBX 8 8 0 0
BITMAP
7E
18
18
18
18
18
18
00
ENDCHAR
STARTCHAR C85
ENCODING 85
SWIDTH 500 0
DWIDTH 8 0
BBX 8 8 0 0
BITMAP
62
62
62
62
62
62
3C
00
ENDCHAR
STARTCHAR C86
ENCODING 86
SWIDTH 500 0
DWIDTH 8 0
BBX 8 8 0 0
BITMAP
62
62
62
62
34
34
18
00
ENDCHAR
STARTCHAR C87
ENCODING 87
SWIDTH 500 0
DWIDTH 8 0
BBX 8 8 0 0
BITMAP
C1
C1
C1
C1
C9
C9
76
00
ENDCHAR
STARTCHAR C88
ENCODING 88
SWIDTH 500 0
DWIDTH 8 0
BBX 8 8 0 0
BITMAP
62
62
34
18
34
62
62
00
ENDCHAR
STARTCHAR C89
ENCODING 89
SWIDTH 500 0
DWIDTH 8 0
BBX 8 8 0 0
BITMAP
62
62
62
34
18
18
18
00
ENDCHAR
STARTCHAR C90
ENCODING 90
SWIDTH 500 0
DWIDTH 8 0
BBX 8 8 0 0
BITMAP
7C
04
08
10
20
40
7C
00
ENDCHAR
STARTCHAR C91
ENCODING 91
SWIDTH 500 0
DWIDTH 8 0
BBX 8 8 0 0
BITMAP
00
00
00
00
00
00
00
00
ENDCHAR
STARTCHAR C92
ENCODING 92
SWIDTH 500 0
DWIDTH 8 0
BBX 8 8 0 0
BITMAP
00
00
00
00
00
00
00
00
ENDCHAR
STARTCHAR C93
ENCODING 93
SWIDTH 500 0
DWIDTH 8 0
BBX 8 8 0 0
BITMAP
00
00
00
00
00
00
00
00
ENDCHAR
STARTCHAR C94
ENCODING 94
SWIDTH 500 0
DWIDTH 8 0
BBX 8 8 0 0
BITMAP
00
00
00
00
00
00
00
00
ENDCHAR
STARTCHAR C95
ENCODING 95
SWIDTH 500 0
DWIDTH 8 0
BBX 8 8 0 0
BITMAP
00
00
00
00
00
00
00
00
ENDCHAR
STARTCHAR C96
ENCODING 96
SWIDTH 500 0
DWIDTH 8 0
BBX 8 8 0 0
BITMAP
00
00
00
00
00
00
00
00
ENDCHAR
STARTCHAR C97
ENCODING 97
SWIDTH 500 0
DWIDTH 8 0
BBX 8 8 0 0
BITMAP
00
00
3C
02
3E
42
3E
00
ENDCHAR
STARTCHAR C98
ENCODING 98
SWIDTH 500 0
DWIDTH 8 0
BBX 8 8 0 0
BITMAP
40
40
7C
42
42
42
7C
00
ENDCHAR
STARTCHAR C99
ENCODING 99
SWIDTH 500 0
DWIDTH 8 0
BBX 8 8 0 0
BITMAP
00
00
3E
40
40
40
3E
00
ENDCHAR
STARTCHAR C100
ENCODING 100
SWIDTH 500 0
DWIDTH 8 0
BBX 8 8 0 0
BITMAP
02
02
3E
42
42
42
3E
00
ENDCHAR
STARTCHAR C101
ENCODING 101
SWIDTH 500 0
DWIDTH 8 0
BBX 8 8 0 0
BITMAP
00
00
3C
42
7C
40
3C
00
ENDCHAR
STARTCHAR C102
ENCODING 102
SWIDTH 500 0
DWIDTH 8 0
BBX 8 8 0 0
BITMAP
0C
10
18
10
10
10
10
00
ENDCHAR
STARTCHAR C103
ENCODING 103
SWIDTH 500 0
DWIDTH 8 0
BBX 8 8 0 0
BITMAP
00
00
3E
42
3E
02
3C
00
ENDCHAR
STARTCHAR C104
ENCODING 104
SWIDTH 500 0
DWIDTH 8 0
BBX 8 8 0 0
BITMAP
40
40
7C
42
42
42
42
00
ENDCHAR
STARTCHAR C105
ENCODING 105
SWIDTH 500 0
DWIDTH 8 0
BBX 8 8 0 0
BITMAP
10
00
10
10
10
10
10
00
ENDCHAR
STARTCHAR C106
ENCODING 106
SWIDTH 500 0
DWIDTH 8 0
BBX 8 8 0 0
BITMAP
08
00
08
08
08
08
48
30
ENDCHAR
STARTCHAR C107
ENCODING 107
SWIDTH 500 0
DWIDTH 8 0
BBX 8 8 0 0
BITMAP
20
20
24
28
30
28
24
00
ENDCHAR
STARTCHAR C108
ENCODING 108
SWIDTH 500 0
DWIDTH 8 0
BBX 8 8 0 0
BITMAP
10
10
10
10
10
10
10
00
ENDCHAR
STARTCHAR C109
ENCODING 109
SWIDTH 500 0
DWIDTH 8 0
BBX 8 8 0 0
BITMAP
00
00
66
5A
42
42
42
00
ENDCHAR
STARTCHAR C110
ENCODING 110
SWIDTH 500 0
DWIDTH 8 0
BBX 8 8 0 0
BITMAP
00
00
7C
42
42
42
42
00
ENDCHAR
STARTCHAR C111
ENCODING 111
SWIDTH 500 0
DWIDTH 8 0
BBX 8 8 0 0
BITMAP
00
00
3C
42
42
42
3C
00
ENDCHAR
STARTCHAR C112
ENCODING 112
SWIDTH 500 0
DWIDTH 8 0
BBX 8 8 0 0
BITMAP
00
00
7C
42
42
42
7C
40
ENDCHAR
STARTCHAR C113
ENCODING 113
SWIDTH 500 0
DWIDTH 8 0
BBX 8 8 0 0
BITMAP
00
00
3E
42
42
42
3E
02
ENDCHAR
STARTCHAR C114
ENCODING 114
SWIDTH 500 0
DWIDTH 8 0
BBX 8 8 0 0
BITMAP
00
00
5C
62
40
40
40
00
ENDCHAR
STARTCHAR C115
ENCODING 115
SWIDTH 500 0
DWIDTH 8 0
BBX 8 8 0 0
BITMAP
00
00
3E
40
3C
02
7C
00
ENDCHAR
STARTCHAR C116
ENCODING 116
SWIDTH 500 0
DWIDTH 8 0
BBX 8 8 0 0
BITMAP
10
10
3C
10
10
10
0C
00
ENDCHAR
STARTCHAR C117
ENCODING 117
SWIDTH 500 0
DWIDTH 8 0
BBX 8 8 0 0
BITMAP
00
00
42
42
42
42
3E
00
ENDCHAR
STARTCHAR C118
ENCODING 118
SWIDTH 500 0
DWIDTH 8 0
BBX 8 8 0 0
BITMAP
00
00
44
44
28
28
10
00
ENDCHAR
STARTCHAR C119
ENCODING 119
SWIDTH 500 0
DWIDTH 8 0
BBX 8 8 0 0
BITMAP
00
00
42
42
42
5A
66
00
ENDCHAR
STARTCHAR C120
ENCODING 120
SWIDTH 500 0
DWIDTH 8 0
BBX 8 8 0 0
BITMAP
00
00
42
24
18
24
42
00
ENDCHAR
STARTCHAR C121
ENCODING 121
SWIDTH 500 0
DWIDTH 8 0
BBX 8 8 0 0
BITMAP
00
00
42
42
3E
02
3C
00
ENDCHAR
STARTCHAR C122
ENCODING 122
SWIDTH 500 0
DWIDTH 8 0
BBX 8 8 0 0
BITMAP
00
00
7E
04
08
30
7E
00
ENDCHAR
STARTCHAR C123
ENCODING 123
SWIDTH 500 0
DWIDTH 8 0
BBX 8 8 0 0
BITMAP
00
00
00
00
00
00
00
00
ENDCHAR
STARTCHAR C124
ENCODING 124
SWIDTH 500 0
DWIDTH 8 0
BBX 8 8 0 0
BITMAP
00
00
00
00
00
00
00
00
ENDCHAR
STARTCHAR C125
ENCODING 125
SWIDTH 500 0
DWIDTH 8 0
BBX 8 8 0 0
BITMAP
00
00
00
00
00
00
00
00
ENDCHAR
STARTCHAR C126
ENCODING 126
SWIDTH 500 0
DWIDTH 8 0
BBX 8 8 0 0
BITMAP
00
00
00
00
00
00
00
00
ENDCHAR
STARTCHAR C127
ENCODING 127
SWIDTH 500 0
DWIDTH 8 0
BBX 8 8 0 0
BITMAP
00
00
00
00
00
00
00
00
ENDCHAR
STARTCHAR C128
ENCODING 128
SWIDTH 500 0
DWIDTH 8 0
BBX 8 8 0 0
BITMAP
00
00
00
00
00
00
00
00
ENDCHAR
STARTCHAR C129
ENCODING 129
SWIDTH 500 0
DWIDTH 8 0
BBX 8 8 0 0
BITMAP
24
00
42
42
42
42
3E
00
ENDCHAR
STARTCHAR C130
ENCODING 130
SWIDTH 500 0
DWIDTH 8 0
BBX 8 8 0 0
BITMAP
00
00
00
00
00
00
00
00
ENDCHAR
STARTCHAR C131
ENCODING 131
SWIDTH 500 0
DWIDTH 8 0
BBX 8 8 0 0
BITMAP
00
00
00
00
00
00
00
00
ENDCHAR
STARTCHAR C132
ENCODING 132
SWIDTH 500 0
DWIDTH 8 0
BBX 8 8 0 0
BITMAP
14
00
3C
02
3E
42
3E
00
ENDCHAR
STARTCHAR C133
ENCODING 133
SWIDTH 500 0
DWIDTH 8 0
BBX 8 8 0 0
BITMAP
00
00
00
00
00
00
00
00
ENDCHAR
STARTCHAR C134
ENCODING 134
SWIDTH 500 0
DWIDTH 8 0
BBX 8 8 0 0
BITMAP
08
00
3C
02
3E
42
3E
00
ENDCHAR
STARTCHAR C135
ENCODING 135
SWIDTH 500 0
DWIDTH 8 0
BBX 8 8 0 0
BITMAP
00
00
00
00
00
00
00
00
ENDCHAR
STARTCHAR C136
ENCODING 136
SWIDTH 500 0
DWIDTH 8 0
BBX 8 8 0 0
BITMAP
00
00
00
00
00
00
00
00
ENDCHAR
STARTCHAR C137
ENCODING 137
SWIDTH 500 0
DWIDTH 8 0
BBX 8 8 0 0
BITMAP
00
00
00
00
00
00
00
00
ENDCHAR
STARTCHAR C138
ENCODING 138
SWIDTH 500 0
DWIDTH 8 0
BBX 8 8 0 0
BITMAP
00
00
00
00
00
00
00
00
ENDCHAR
STARTCHAR C139
ENCODING 139
SWIDTH 500 0
DWIDTH 8 0
BBX 8 8 0 0
BITMAP
00
00
00
00
00
00
00
00
ENDCHAR
STARTCHAR C140
ENCODING 140
SWIDTH 500 0
DWIDTH 8 0
BBX 8 8 0 0
BITMAP
00
00
00
00
00
00
00
00
ENDCHAR
STARTCHAR C141
ENCODING 141
SWIDTH 500 0
DWIDTH 8 0
BBX 8 8 0 0
BITMAP
00
00
00
00
00
00
00
00
ENDCHAR
STARTCHAR C142
ENCODING 142
SWIDTH 500 0
DWIDTH 8 0
BBX 8 8 0 0
BITMAP
24
00
3C
62
62
7A
62
00
ENDCHAR
STARTCHAR C143
ENCODING 143
SWIDTH 500 0
DWIDTH 8 0
BBX 8 8 0 0
BITMAP
18
00
3C
62
62
7A
62
00
ENDCHAR
STARTCHAR C144
ENCODING 144
SWIDTH 500 0
DWIDTH 8 0
BBX 8 8 0 0
BITMAP
00
00
00
00
00
00
00
00
ENDCHAR
STARTCHAR C145
ENCODING 145
SWIDTH 500 0
DWIDTH 8 0
BBX 8 8 0 0
BITMAP
00
00
00
00
00
00
00
00
ENDCHAR
STARTCHAR C146
ENCODING 146
SWIDTH 500 0
DWIDTH 8 0
BBX 8 8 0 0
BITMAP
00
00
00
00
00
00
00
00
ENDCHAR
STARTCHAR C147
ENCODING 147
SWIDTH 500 0
DWIDTH 8 0
BBX 8 8 0 0
BITMAP
00
00
00
00
00
00
00
00
ENDCHAR
STARTCHAR C148
ENCODING 148
SWIDTH 500 0
DWIDTH 8 0
BBX 8 8 0 0
BITMAP
14
00
3C
42
42
42
3C
00
ENDCHAR
STARTCHAR C149
ENCODING 149
SWIDTH 500 0
DWIDTH 8 0
BBX 8 8 0 0
BITMAP
00
00
00
00
00
00
00
00
ENDCHAR
STARTCHAR C150
ENCODING 150
SWIDTH 500 0
DWIDTH 8 0
BBX 8 8 0 0
BITMAP
00
00
00
00
00
00
00
00
ENDCHAR
STARTCHAR C151
ENCODING 151
SWIDTH 500 0
DWIDTH 8 0
BBX 8 8 0 0
BITMAP
00
00
00
00
00
00
00
00
ENDCHAR
STARTCHAR C152
ENCODING 152
SWIDTH 500 0
DWIDTH 8 0
BBX 8 8 0 0
BITMAP
00
00
00
00
00
00
00
00
ENDCHAR
STARTCHAR C153
ENCODING 153
SWIDTH 500 0
DWIDTH 8 0
BBX 8 8 0 0
BITMAP
24
00
3C
62
62
62
3C
00
ENDCHAR
STARTCHAR C154
ENCODING 154
SWIDTH 500 0
DWIDTH 8 0
BBX 8 8 0 0
BITMAP
24
00
42
42
42
42
3E
00
ENDCHAR
STARTCHAR C155
ENCODING 155
SWIDTH 500 0
DWIDTH 8 0
BBX 8 8 0 0
BITMAP
00
00
00
00
00
00
00
00
ENDCHAR
STARTCHAR C156
ENCODING 156
SWIDTH 500 0
DWIDTH 8 0
BBX 8 8 0 0
BITMAP
00
00
00
00
00
00
00
00
ENDCHAR
STARTCHAR C157
ENCODING 157
SWIDTH 500 0
DWIDTH 8 0
BBX 8 8 0 0
BITMAP
00
00
00
00
00
00
00
00
ENDCHAR
STARTCHAR C158
ENCODING 158
SWIDTH 500 0
DWIDTH 8 0
BBX 8 8 0 0
BITMAP
00
00
00
00
00
00
00
00
ENDCHAR
STARTCHAR C159
ENCODING 159
SWIDTH 500 0
DWIDTH 8 0
BBX 8 8 0 0
BITMAP
00
00
00
00
00
00
00
00
ENDCHAR
STARTCHAR C160
ENCODING 160
SWIDTH 500 0
DWIDTH 8 0
BBX 8 8 0 0
BITMAP
00
00
00
00
00
00
00
00
ENDCHAR
STARTCHAR C161
ENCODING 161
SWIDTH 500 0
DWIDTH 8 0
BBX 8 8 0 0
BITMAP
00
00
00
00
00
00
00
00
ENDCHAR
STARTCHAR C162
ENCODING 162
SWIDTH 500 0
DWIDTH 8 0
BBX 8 8 0 0
BITMAP
00
00
00
00
00
00
00
00
ENDCHAR
STARTCHAR C163
ENCODING 163
SWIDTH 500 0
DWIDTH 8 0
BBX 8 8 0 0
BITMAP
00
00
00
00
00
00
00
00
ENDCHAR
STARTCHAR C164
ENCODING 164
SWIDTH 500 0
DWIDTH 8 0
BBX 8 8 0 0
BITMAP
00
00
00
00
00
00
00
00
ENDCHAR
STARTCHAR C165
ENCODING 165
SWIDTH 500 0
DWIDTH 8 0
BBX 8 8 0 0
BITMAP
00
00
00
00
00
00
00
00
ENDCHAR
STARTCHAR C166
ENCODING 166
SWIDTH 500 0
DWIDTH 8 0
BBX 8 8 0 0
BITMAP
00
00
00
00
00
00
00
00
ENDCHAR
STARTCHAR C167
ENCODING 167
SWIDTH 500 0
DWIDTH 8 0
BBX 8 8 0 0
BITMAP
00
00
00
00
00
00
00
00
ENDCHAR
STARTCHAR C168
ENCODING 168
SWIDTH 500 0
DWIDTH 8 0
BBX 8 8 0 0
BITMAP
00
00
00
00
00
00
00
00
ENDCHAR
STARTCHAR C169
ENCODING 169
SWIDTH 500 0
DWIDTH 8 0
BBX 8 8 0 0
BITMAP
00
00
00
00
00
00
00
00
ENDCHAR
STARTCHAR C170
ENCODING 170
SWIDTH 500 0
DWIDTH 8 0
BBX 8 8 0 0
BITMAP
00
00
00
00
00
00
00
00
ENDCHAR
STARTCHAR C171
ENCODING 171
SWIDTH 500 0
DWIDTH 8 0
BBX 8 8 0 0
BITMAP
00
00
00
00
00
00
00
00
ENDCHAR
STARTCHAR C172
ENCODING 172
SWIDTH 500 0
DWIDTH 8 0
BBX 8 8 0 0
BITMAP
00
00
00
00
00
00
00
00
ENDCHAR
STARTCHAR C173
ENCODING 173
SWIDTH 500 0
DWIDTH 8 0
BBX 8 8 0 0
BITMAP
00
00
00
00
00
00
00
00
ENDCHAR
STARTCHAR C174
ENCODING 174
SWIDTH 500 0
DWIDTH 8 0
BBX 8 8 0 0
BITMAP
00
00
00
00
00
00
00
00
ENDCHAR
STARTCHAR C175
ENCODING 175
SWIDTH 500 0
DWIDTH 8 0
BBX 8 8 0 0
BITMAP
00
00
00
00
00
00
00
00
ENDCHAR
STARTCHAR C176
ENCODING 176
SWIDTH 500 0
DWIDTH 8 0
BBX 8 8 0 0
BITMAP
00
00
00
00
00
00
00
00
ENDCHAR
STARTCHAR C177
ENCODING 177
SWIDTH 500 0
DWIDTH 8 0
BBX 8 8 0 0
BITMAP
00
00
00
00
00
00
00
00
ENDCHAR
STARTCHAR C178
ENCODING 178
SWIDTH 500 0
DWIDTH 8 0
BBX 8 8 0 0
BITMAP
00
00
00
00
00
00
00
00
ENDCHAR
STARTCHAR C179
ENCODING 179
SWIDTH 500 0
DWIDTH 8 0
BBX 8 8 0 0
BITMAP
00
00
00
00
00
00
00
00
ENDCHAR
STARTCHAR C180
ENCODING 180
SWIDTH 500 0
DWIDTH 8 0
BBX 8 8 0 0
BITMAP
00
00
00
00
00
00
00
00
ENDCHAR
STARTCHAR C181
ENCODING 181
SWIDTH 500 0
DWIDTH 8 0
BBX 8 8 0 0
BITMAP
00
00
00
00
00
00
00
00
ENDCHAR
STARTCHAR C182
ENCODING 182
SWIDTH 500 0
DWIDTH 8 0
BBX 8 8 0 0
BITMAP
00
00
00
00
00
00
00
00
ENDCHAR
STARTCHAR C183
ENCODING 183
SWIDTH 500 0
DWIDTH 8 0
BBX 8 8 0 0
BITMAP
00
00
00
00
00
00
00
00
ENDCHAR
STARTCHAR C184
ENCODING 184
SWIDTH 500 0
DWIDTH 8 0
BBX 8 8 0 0
BITMAP
00
00
00
00
00
00
00
00
ENDCHAR
STARTCHAR C185
ENCODING 185
SWIDTH 500 0
DWIDTH 8 0
BBX 8 8 0 0
BITMAP
00
00
00
00
00
00
00
00
ENDCHAR
STARTCHAR C186
ENCODING 186
SWIDTH 500 0
DWIDTH 8 0
BBX 8 8 0 0
BITMAP
00
00
00
00
00
00
00
00
ENDCHAR
STARTCHAR C187
ENCODING 187
SWIDTH 500 0
DWIDTH 8 0
BBX 8 8 0 0
BITMAP
00
00
00
00
00
00
00
00
ENDCHAR
STARTCHAR C188
ENCODING 188
SWIDTH 500 0
DWIDTH 8 0
BBX 8 8 0 0
BITMAP
00
00
00
00
00
00
00
00
ENDCHAR
STARTCHAR C189
ENCODING 189
SWIDTH 500 0
DWIDTH 8 0
BBX 8 8 0 0
BITMAP
00
00
00
00
00
00
00
00
ENDCHAR
STARTCHAR C190
ENCODING 190
SWIDTH 500 0
DWIDTH 8 0
BBX 8 8 0 0
BITMAP
00
00
00
00
00
00
00
00
ENDCHAR
STARTCHAR C191
ENCODING 191
SWIDTH 500 0
DWIDTH 8 0
BBX 8 8 0 0
BITMAP
00
00
00
00
00
00
00
00
ENDCHAR
STARTCHAR C192
ENCODING 192
SWIDTH 500 0
DWIDTH 8 0
BBX 8 8 0 0
BITMAP
00
00
00
00
00
00
00
00
ENDCHAR
STARTCHAR C193
ENCODING 193
SWIDTH 500 0
DWIDTH 8 0
BBX 8 8 0 0
BITMAP
00
00
00
00
00
00
00
00
ENDCHAR
STARTCHAR C194
ENCODING 194
SWIDTH 500 0
DWIDTH 8 0
BBX 8 8 0 0
BITMAP
00
00
00
00
00
00
00
00
ENDCHAR
STARTCHAR C195
ENCODING 195
SWIDTH 500 0
DWIDTH 8 0
BBX 8 8 0 0
BITMAP
00
00
00
00
00
00
00
00
ENDCHAR
STARTCHAR C196
ENCODING 196
SWIDTH 500 0
DWIDTH 8 0
BBX 8 8 0 0
BITMAP
00
00
00
00
00
00
00
00
ENDCHAR
STARTCHAR C197
ENCODING 197
SWIDTH 500 0
DWIDTH 8 0
BBX 8 8 0 0
BITMAP
00
00
00
00
00
00
00
00
ENDCHAR
STARTCHAR C198
ENCODING 198
SWIDTH 500 0
DWIDTH 8 0
BBX 8 8 0 0
BITMAP
00
00
00
00
00
00
00
00
ENDCHAR
STARTCHAR C199
ENCODING 199
SWIDTH 500 0
DWIDTH 8 0
BBX 8 8 0 0
BITMAP
00
00
00
00
00
00
00
00
ENDCHAR
STARTCHAR C200
ENCODING 200
SWIDTH 500 0
DWIDTH 8 0
BBX 8 8 0 0
BITMAP
00
00
00
00
00
00
00
00
ENDCHAR
STARTCHAR C201
ENCODING 201
SWIDTH 500 0
DWIDTH 8 0
BBX 8 8 0 0
BITMAP
00
00
00
00
00
00
00
00
ENDCHAR
STARTCHAR C202
ENCODING 202
SWIDTH 500 0
DWIDTH 8 0
BBX 8 8 0 0
BITMAP
00
00
00
00
00
00
00
00
ENDCHAR
STARTCHAR C203
ENCODING 203
SWIDTH 500 0
DWIDTH 8 0
BBX 8 8 0 0
BITMAP
00
00
00
00
00
00
00
00
ENDCHAR
STARTCHAR C204
ENCODING 204
SWIDTH 500 0
DWIDTH 8 0
BBX 8 8 0 0
BITMAP
00
00
00
00
00
00
00
00
ENDCHAR
STARTCHAR C205
ENCODING 205
SWIDTH 500 0
DWIDTH 8 0
BBX 8 8 0 0
BITMAP
00
00
00
00
00
00
00
00
ENDCHAR
STARTCHAR C206
ENCODING 206
SWIDTH 500 0
DWIDTH 8 0
BBX 8 8 0 0
BITMAP
00
00
00
00
00
00
00
00
ENDCHAR
STARTCHAR C207
ENCODING 207
SWIDTH 500 0
DWIDTH 8 0
BBX 8 8 0 0
BITMAP
00
00
00
00
00
00
00
00
ENDCHAR
STARTCHAR C208
ENCODING 208
SWIDTH 500 0
DWIDTH 8 0
BBX 8 8 0 0
BITMAP
00
00
00
00
00
00
00
00
ENDCHAR
STARTCHAR C209
ENCODING 209
SWIDTH 500 0
DWIDTH 8 0
BBX 8 8 0 0
BITMAP
00
00
00
00
00
00
00
00
ENDCHAR
STARTCHAR C210
ENCODING 210
SWIDTH 500 0
DWIDTH 8 0
BBX 8 8 0 0
BITMAP
00
00
00
00
00
00
00
00
ENDCHAR
STARTCHAR C211
ENCODING 211
SWIDTH 500 0
DWIDTH 8 0
BBX 8 8 0 0
BITMAP
00
00
00
00
00
00
00
00
ENDCHAR
STARTCHAR C212
ENCODING 212
SWIDTH 500 0
DWIDTH 8 0
BBX 8 8 0 0
BITMAP
00
00
00
00
00
00
00
00
ENDCHAR
STARTCHAR C213
ENCODING 213
SWIDTH 500 0
DWIDTH 8 0
BBX 8 8 0 0
BITMAP
00
00
00
00
00
00
00
00
ENDCHAR
STARTCHAR C214
ENCODING 214
SWIDTH 500 0
DWIDTH 8 0
BBX 8 8 0 0
BITMAP
00
00
00
00
00
00
00
00
ENDCHAR
STARTCHAR C215
ENCODING 215
SWIDTH 500 0
DWIDTH 8 0
BBX 8 8 0 0
BITMAP
00
00
00
00
00
00
00
00
ENDCHAR
STARTCHAR C216
ENCODING 216
SWIDTH 500 0
DWIDTH 8 0
BBX 8 8 0 0
BITMAP
00
00
00
00
00
00
00
00
ENDCHAR
STARTCHAR C217
ENCODING 217
SWIDTH 500 0
DWIDTH 8 0
BBX 8 8 0 0
BITMAP
00
00
00
00
00
00
00
00
ENDCHAR
STARTCHAR C218
ENCODING 218
SWIDTH 500 0
DWIDTH 8 0
BBX 8 8 0 0
BITMAP
00
00
00
00
00
00
00
00
ENDCHAR
STARTCHAR C219
ENCODING 219
SWIDTH 500 0
DWIDTH 8 0
BBX 8 8 0 0
BITMAP
00
00
00
00
00
00
00
00
ENDCHAR
STARTCHAR C220
ENCODING 220
SWIDTH 500 0
DWIDTH 8 0
BBX 8 8 0 0
BITMAP
00
00
00
00
00
00
00
00
ENDCHAR
STARTCHAR C221
ENCODING 221
SWIDTH 500 0
DWIDTH 8 0
BBX 8 8 0 0
BITMAP
00
00
00
00
00
00
00
00
ENDCHAR
STARTCHAR C222
ENCODING 222
SWIDTH 500 0
DWIDTH 8 0
BBX 8 8 0 0
BITMAP
00
00
00
00
00
00
00
00
ENDCHAR
STARTCHAR C223
ENCODING 223
SWIDTH 500 0
DWIDTH 8 0
BBX 8 8 0 0
BITMAP
00
00
00
00
00
00
00
00
ENDCHAR
STARTCHAR C224
ENCODING 224
SWIDTH 500 0
DWIDTH 8 0
BBX 8 8 0 0
BITMAP
00
00
00
00
00
00
00
00
ENDCHAR
STARTCHAR C225
ENCODING 225
SWIDTH 500 0
DWIDTH 8 0
BBX 8 8 0 0
BITMAP
00
00
00
00
00
00
00
00
ENDCHAR
STARTCHAR C226
ENCODING 226
SWIDTH 500 0
DWIDTH 8 0
BBX 8 8 0 0
BITMAP
00
00
00
00
00
00
00
00
ENDCHAR
STARTCHAR C227
ENCODING 227
SWIDTH 500 0
DWIDTH 8 0
BBX 8 8 0 0
BITMAP
00
00
00
00
00
00
00
00
ENDCHAR
STARTCHAR C228
ENCODING 228
SWIDTH 500 0
DWIDTH 8 0
BBX 8 8 0 0
BITMAP
00
00
00
00
00
00
00
00
ENDCHAR
STARTCHAR C229
ENCODING 229
SWIDTH 500 0
DWIDTH 8 0
BBX 8 8 0 0
BITMAP
00
00
00
00
00
00
00
00
ENDCHAR
STARTCHAR C230
ENCODING 230
SWIDTH 500 0
DWIDTH 8 0
BBX 8 8 0 0
BITMAP
00
00
00
00
00
00
00
00
ENDCHAR
STARTCHAR C231
ENCODING 231
SWIDTH 500 0
DWIDTH 8 0
BBX 8 8 0 0
BITMAP
00
00
00
00
00
00
00
00
ENDCHAR
STARTCHAR C232
ENCODING 232
SWIDTH 500 0
DWIDTH 8 0
BBX 8 8 0 0
BITMAP
00
00
00
00
00
00
00
00
ENDCHAR
STARTCHAR C233
ENCODING 233
SWIDTH 500 0
DWIDTH 8 0
BBX 8 8 0 0
BITMAP
00
00
00
00
00
00
00
00
ENDCHAR
STARTCHAR C234
ENCODING 234
SWIDTH 500 0
DWIDTH 8 0
BBX 8 8 0 0
BITMAP
00
00
00
00
00
00
00
00
ENDCHAR
STARTCHAR C235
ENCODING 235
SWIDTH 500 0
DWIDTH 8 0
BBX 8 8 0 0
BITMAP
00
00
00
00
00
00
00
00
ENDCHAR
STARTCHAR C236
ENCODING 236
SWIDTH 500 0
DWIDTH 8 0
BBX 8 8 0 0
BITMAP
00
00
00
00
00
00
00
00
ENDCHAR
STARTCHAR C237
ENCODING 237
SWIDTH 500 0
DWIDTH 8 0
BBX 8 8 0 0
BITMAP
00
00
00
00
00
00
00
00
ENDCHAR
STARTCHAR C238
ENCODING 238
SWIDTH 500 0
DWIDTH 8 0
BBX 8 8 0 0
BITMAP
00
00
00
00
00
00
00
00
ENDCHAR
STARTCHAR C239
ENCODING 239
SWIDTH 500 0
DWIDTH 8 0
BBX 8 8 0 0
BITMAP
00
00
00
00
00
00
00
00
ENDCHAR
STARTCHAR C240
ENCODING 240
SWIDTH 500 0
DWIDTH 8 0
BBX 8 8 0 0
BITMAP
00
00
00
00
00
00
00
00
ENDCHAR
STARTCHAR C241
ENCODING 241
SWIDTH 500 0
DWIDTH 8 0
BBX 8 8 0 0
BITMAP
00
00
00
00
00
00
00
00
ENDCHAR
STARTCHAR C242
ENCODING 242
SWIDTH 500 0
DWIDTH 8 0
BBX 8 8 0 0
BITMAP
00
00
00
00
00
00
00
00
ENDCHAR
STARTCHAR C243
ENCODING 243
SWIDTH 500 0
DWIDTH 8 0
BBX 8 8 0 0
BITMAP
00
00
00
00
00
00
00
00
ENDCHAR
STARTCHAR C244
ENCODING 244
SWIDTH 500 0
DWIDTH 8 0
BBX 8 8 0 0
BITMAP
00
00
00
00
00
00
00
00
ENDCHAR
STARTCHAR C245
ENCODING 245
SWIDTH 500 0
DWIDTH 8 0
BBX 8 8 0 0
BITMAP
00
00
00
00
00
00
00
00
ENDCHAR
STARTCHAR C246
ENCODING 246
SWIDTH 500 0
DWIDTH 8 0
BBX 8 8 0 0
BITMAP
00
00
00
00
00
00
00
00
ENDCHAR
STARTCHAR C247
ENCODING 247
SWIDTH 500 0
DWIDTH 8 0
BBX 8 8 0 0
BITMAP
00
00
00
00
00
00
00
00
ENDCHAR
STARTCHAR C248
ENCODING 248
SWIDTH 500 0
DWIDTH 8 0
BBX 8 8 0 0
BITMAP
00
00
00
00
00
00
00
00
ENDCHAR
STARTCHAR C249
ENCODING 249
SWIDTH 500 0
DWIDTH 8 0
BBX 8 8 0 0
BITMAP
00
00
00
00
00
00
00
00
ENDCHAR
STARTCHAR C250
ENCODING 250
SWIDTH 500 0
DWIDTH 8 0
BBX 8 8 0 0
BITMAP
00
00
00
00
00
00
00
00
ENDCHAR
STARTCHAR C251
ENCODING 251
SWIDTH 500 0
DWIDTH 8 0
BBX 8 8 0 0
BITMAP
00
00
00
00
00
00
00
00
ENDCHAR
STARTCHAR C252
ENCODING 252
SWIDTH 500 0
DWIDTH 8 0
BBX 8 8 0 0
BITMAP
00
00
00
00
00
00
00
00
ENDCHAR
STARTCHAR C253
ENCODING 253
SWIDTH 500 0
DWIDTH 8 0
BBX 8 8 0 0
BITMAP
00
00
00
00
00
00
00
00
ENDCHAR
STARTCHAR C254
ENCODING 254
SWIDTH 500 0
DWIDTH 8 0
BBX 8 8 0 0
BITMAP
00
00
00
00
00
00
00
00
ENDCHAR
STARTCHAR C255
ENCODING 255
SWIDTH 500 0
DWIDTH 8 0
BBX 8 8 0 0
BITMAP
00
00
00
00
00
00
00
00
ENDCHAR
ENDFONT
